<?xml version="1.0" standalone="no"?>
<!DOCTYPE svg PUBLIC "-//W3C//DTD SVG 20010904//EN"
 "http://www.w3.org/TR/2001/REC-SVG-20010904/DTD/svg10.dtd">
<svg version="1.0" xmlns="http://www.w3.org/2000/svg"
 width="31.88" height="32" viewBox="0 0 331.000000 332.000000"
 preserveAspectRatio="xMidYMid meet">

<g transform="translate(0.000000,332.000000) scale(0.100000,-0.100000)"
fill="#000000" stroke="none">
<path d="M1384 3033 c-148 -153 -427 -442 -619 -642 -193 -200 -443 -461 -557
-580 l-208 -216 3 -790 2 -790 793 -3 792 -2 0 165 0 165 -175 0 -175 0 0 170
0 170 175 0 175 0 0 220 0 220 -175 0 -175 0 0 340 0 340 175 0 175 0 0 220 0
220 -250 0 c-172 0 -250 3 -250 11 0 11 131 149 538 562 l253 258 -111 119
c-62 66 -113 120 -115 120 -1 0 -123 -125 -271 -277z m-636 -1915 l-3 -773
-205 0 -205 0 -3 561 -2 560 174 182 c97 100 187 195 202 212 15 16 31 30 36
30 4 0 7 -348 6 -772z"/>
</g>
</svg>
